<svg width="38" height="38" viewBox="0 0 38 38" fill="none" xmlns="http://www.w3.org/2000/svg">
<path d="M37.1644 36.5781H36.5781V27.1969C37.035 27.2188 37.48 26.965 37.665 26.5256C37.7203 26.3918 37.7486 26.2484 37.7482 26.1036C37.7478 25.9589 37.7187 25.8156 37.6626 25.6821C37.6066 25.5486 37.5246 25.4276 37.4215 25.326C37.3184 25.2243 37.1961 25.1441 37.0619 25.09L27.2031 21.0631V17.0719L27.4206 17.16C27.9869 17.3894 28.6431 17.1237 28.8762 16.57C29.1112 16.0156 28.8394 15.3738 28.2744 15.145L19.9769 11.6931V5.13312H22.9069V3.18H19.9769V0.25H18.0237V3.18H15.0938V5.13312H18.0237V11.6925L9.72625 15.1444C9.16125 15.3731 8.88937 16.0156 9.12437 16.5694C9.3575 17.1238 10.0137 17.3894 10.5787 17.1594L10.7975 17.0706V21.0625L0.936875 25.09C0.802712 25.1443 0.680619 25.2245 0.57764 25.3262C0.474662 25.4279 0.392835 25.549 0.336881 25.6824C0.280927 25.8159 0.251953 25.9591 0.25163 26.1038C0.251307 26.2486 0.279642 26.3919 0.335 26.5256C0.51875 26.965 0.965 27.2194 1.42188 27.1969V36.5781H0.83625C0.513125 36.5781 0.25 36.8419 0.25 37.1644C0.25 37.4869 0.513125 37.75 0.83625 37.75H37.1644C37.4856 37.75 37.75 37.4862 37.75 37.1644C37.75 36.8425 37.4856 36.5781 37.1644 36.5781M10.7969 36.5781H2.59375V26.7912L10.7969 23.4406V36.5781M18.4144 35.6019H16.6562V33.8438H18.4144V35.6019M18.4144 33.0625H16.6562V31.3044C16.6562 30.2156 17.4056 29.3056 18.4144 29.0437V33.0625ZM21.3438 35.6019H19.5856V33.8438H21.3438V35.6019ZM21.3438 33.0625H19.5856V29.0444C20.5931 29.3062 21.3438 30.2163 21.3438 31.3044V33.0625ZM26.0312 36.5781H22.5156V31.3044C22.5156 30.372 22.1452 29.4778 21.4859 28.8185C20.8266 28.1591 19.9324 27.7888 19 27.7888C18.0676 27.7888 17.1734 28.1591 16.5141 28.8185C15.8548 29.4778 15.4844 30.372 15.4844 31.3044V36.5781H11.9688V16.5956L19 13.7438L26.0312 16.5962V36.5781ZM35.4062 36.5781H27.2031V23.44L35.4062 26.7906V36.5781Z" fill="#222222"/>
<path d="M18.4024 20.8738C18.6017 21.1444 18.7255 21.0932 18.6761 20.7607L18.2242 17.7238C18.2139 17.6464 18.1873 17.572 18.1463 17.5055C18.1052 17.439 18.0507 17.3819 17.9861 17.338C17.9215 17.294 17.8484 17.2641 17.7715 17.2502C17.6947 17.2364 17.6157 17.2389 17.5399 17.2576C17.5399 17.2576 17.4592 17.2763 17.1286 17.4126C16.798 17.5501 16.7292 17.5938 16.7292 17.5938C16.6623 17.6341 16.6046 17.6882 16.5599 17.7523C16.5153 17.8165 16.4847 17.8894 16.4701 17.9662C16.4555 18.043 16.4573 18.122 16.4754 18.198C16.4934 18.2741 16.5273 18.3455 16.5749 18.4076L18.4024 20.8738ZM14.7961 21.1544L17.8311 21.6057C18.1624 21.6557 18.2142 21.5326 17.943 21.3319L15.4792 19.5051C15.4189 19.4575 15.3488 19.424 15.2739 19.4069C15.1991 19.3898 15.1214 19.3895 15.0464 19.406C14.9714 19.4226 14.901 19.4556 14.8403 19.5027C14.7797 19.5497 14.7302 19.6097 14.6955 19.6782L14.3649 20.4776C14.3409 20.5505 14.3335 20.6279 14.343 20.704C14.3526 20.7802 14.379 20.8533 14.4202 20.9181C14.4615 20.9828 14.5166 21.0376 14.5816 21.0785C14.6466 21.1194 14.7199 21.1453 14.7961 21.1544M17.8305 22.2538L14.7942 22.7057C14.7168 22.716 14.6425 22.7426 14.576 22.7836C14.5095 22.8247 14.4525 22.8793 14.4085 22.9438C14.3646 23.0084 14.3348 23.0815 14.321 23.1584C14.3072 23.2353 14.3098 23.3142 14.3286 23.3901C14.3286 23.3901 14.3467 23.4707 14.483 23.8013C14.6205 24.1313 14.6642 24.2007 14.6642 24.2007C14.7046 24.2676 14.7586 24.3253 14.8228 24.37C14.8869 24.4146 14.9598 24.4453 15.0366 24.4598C15.1134 24.4744 15.1924 24.4726 15.2685 24.4545C15.3445 24.4365 15.4159 24.4026 15.478 24.3551L17.9436 22.5276C18.2149 22.3276 18.163 22.2038 17.8305 22.2538M18.4024 22.9851L16.5761 25.4501C16.5285 25.5102 16.4948 25.5803 16.4776 25.6551C16.4604 25.7299 16.46 25.8076 16.4765 25.8826C16.493 25.9575 16.526 26.0279 16.5731 26.0885C16.6201 26.1492 16.6801 26.1986 16.7486 26.2332L17.548 26.5644C17.6209 26.5884 17.6982 26.5959 17.7743 26.5863C17.8504 26.5767 17.9234 26.5503 17.9881 26.509C18.0527 26.4678 18.1074 26.4126 18.1482 26.3476C18.1889 26.2826 18.2147 26.2094 18.2236 26.1332L18.6755 23.0982C18.7255 22.7663 18.6024 22.7144 18.4024 22.9851M19.7755 26.1357C19.7859 26.2131 19.8126 26.2874 19.8536 26.3538C19.8947 26.4202 19.9493 26.4772 20.0138 26.5211C20.0784 26.565 20.1515 26.5949 20.2283 26.6087C20.3052 26.6225 20.3841 26.62 20.4599 26.6013C20.4599 26.6013 20.5405 26.5832 20.8711 26.4469C21.2005 26.3094 21.2705 26.2657 21.2705 26.2657C21.3374 26.2253 21.3951 26.1713 21.4398 26.1072C21.4844 26.043 21.5151 25.9701 21.5296 25.8933C21.5442 25.8165 21.5424 25.7375 21.5243 25.6614C21.5063 25.5854 21.4724 25.514 21.4249 25.4519L19.5974 22.9851C19.3974 22.7144 19.273 22.7663 19.3236 23.0988L19.7755 26.1357ZM23.2036 22.7051L20.1686 22.2538C19.8374 22.2038 19.7855 22.3269 20.0555 22.5276L22.5205 24.3538C22.5806 24.4014 22.6506 24.4351 22.7254 24.4523C22.8001 24.4695 22.8778 24.4699 22.9527 24.4534C23.0276 24.4369 23.0979 24.4039 23.1585 24.3568C23.2191 24.3098 23.2685 24.2498 23.303 24.1813L23.6349 23.3819C23.6588 23.309 23.6663 23.2316 23.6567 23.1554C23.6471 23.0793 23.6207 23.0061 23.5795 22.9414C23.5382 22.8766 23.4831 22.8218 23.4181 22.781C23.3531 22.7401 23.2799 22.7142 23.2036 22.7051M20.168 21.6057L23.2055 21.1538C23.2829 21.1434 23.3573 21.1167 23.4238 21.0756C23.4902 21.0345 23.5473 20.9799 23.5912 20.9152C23.6351 20.8506 23.665 20.7775 23.6787 20.7005C23.6925 20.6236 23.6899 20.5447 23.6711 20.4688C23.6711 20.4688 23.653 20.3888 23.5167 20.0582C23.3792 19.7282 23.3355 19.6588 23.3355 19.6588C23.2952 19.5918 23.2412 19.534 23.1771 19.4893C23.1129 19.4446 23.04 19.4139 22.9632 19.3994C22.8864 19.3848 22.8073 19.3866 22.7312 19.4047C22.6552 19.4228 22.5838 19.4568 22.5217 19.5044L20.0549 21.3319C19.7849 21.5319 19.8367 21.6557 20.168 21.6057M19.5974 20.8738L21.4236 18.4094C21.4713 18.3492 21.5049 18.2792 21.5221 18.2044C21.5394 18.1296 21.5397 18.0519 21.5232 17.9769C21.5067 17.902 21.4737 17.8316 21.4267 17.771C21.3796 17.7103 21.3196 17.6609 21.2511 17.6263L20.4517 17.2951C20.3788 17.2711 20.3014 17.2637 20.2252 17.2732C20.1491 17.2828 20.076 17.3092 20.0112 17.3504C19.9464 17.3917 19.8917 17.4468 19.8508 17.5118C19.8099 17.5768 19.784 17.6501 19.7749 17.7263L19.3242 20.7607C19.2736 21.0932 19.3974 21.1451 19.5974 20.8738M6.90799 31.2307C7.03236 31.4001 7.10924 31.3682 7.07799 31.1594L6.79549 29.2619C6.78902 29.2135 6.7724 29.167 6.74673 29.1254C6.72106 29.0838 6.68691 29.0481 6.64651 29.0206C6.60611 28.9931 6.56036 28.9745 6.51226 28.9659C6.46416 28.9573 6.41479 28.9589 6.36736 28.9707C6.36736 28.9707 6.31799 28.9826 6.11111 29.0669C6.02586 29.0998 5.94259 29.1375 5.86174 29.1801C5.81983 29.2052 5.78371 29.2389 5.75578 29.279C5.72785 29.3191 5.70874 29.3646 5.6997 29.4126C5.69067 29.4606 5.69191 29.51 5.70336 29.5575C5.71481 29.605 5.7362 29.6496 5.76611 29.6882L6.90799 31.2307M4.65361 31.4057L6.54986 31.6882C6.75924 31.7201 6.79049 31.6426 6.62174 31.5176L5.07986 30.3763C5.04225 30.3464 4.99843 30.3253 4.95161 30.3145C4.90478 30.3037 4.85614 30.3035 4.80924 30.314C4.76233 30.3244 4.71835 30.3451 4.6805 30.3747C4.64265 30.4044 4.6119 30.442 4.59049 30.4851L4.38299 30.9838C4.36837 31.0294 4.36401 31.0777 4.37022 31.1252C4.37643 31.1727 4.39306 31.2182 4.41892 31.2585C4.44478 31.2988 4.47923 31.3329 4.5198 31.3583C4.56037 31.3838 4.60607 31.4 4.65361 31.4057M4.45736 33.0588C4.54361 33.2663 4.57111 33.3094 4.57111 33.3094C4.59622 33.3513 4.62993 33.3875 4.67002 33.4154C4.71011 33.4433 4.75566 33.4624 4.80368 33.4715C4.8517 33.4805 4.90108 33.4793 4.94858 33.4678C4.99608 33.4564 5.04061 33.435 5.07924 33.4051L6.62236 32.2632C6.79111 32.1388 6.75861 32.0613 6.55049 32.0926L4.65236 32.3751C4.60393 32.3817 4.55744 32.3985 4.51589 32.4242C4.47434 32.45 4.43866 32.4842 4.41115 32.5246C4.38364 32.565 4.36491 32.6107 4.35619 32.6588C4.34746 32.7069 4.34893 32.7563 4.36049 32.8038C4.36049 32.8038 4.37236 32.8532 4.45736 33.0588M6.90799 32.5501L5.76611 34.0919C5.73611 34.1294 5.7149 34.1732 5.70405 34.22C5.69319 34.2668 5.69298 34.3155 5.70341 34.3624C5.71385 34.4093 5.73467 34.4532 5.76434 34.491C5.79401 34.5288 5.83178 34.5594 5.87486 34.5807L6.37361 34.7876C6.57611 34.8469 6.76486 34.7251 6.79611 34.5182L7.07861 32.6213C7.10986 32.4126 7.03299 32.3807 6.90799 32.5501M7.76611 34.5188C7.79736 34.7263 7.98924 34.8582 8.19424 34.8101C8.19424 34.8101 8.24361 34.7982 8.44924 34.7138C8.65674 34.6282 8.69986 34.6007 8.69986 34.6007C8.74178 34.5756 8.77789 34.5419 8.80582 34.5018C8.83375 34.4617 8.85286 34.4161 8.8619 34.3681C8.87094 34.3201 8.86969 34.2707 8.85824 34.2232C8.84679 34.1757 8.82541 34.1312 8.79549 34.0926L7.65361 32.5501C7.52924 32.3807 7.45111 32.4132 7.48236 32.6213L7.76611 34.5188M9.90861 32.3751L8.01236 32.0926C7.80299 32.0613 7.77174 32.1388 7.94049 32.2632L9.48236 33.4051C9.51987 33.4349 9.5636 33.4561 9.61033 33.4668C9.65706 33.4776 9.70561 33.4778 9.75243 33.4674C9.79924 33.4569 9.84312 33.4362 9.88086 33.4066C9.91859 33.377 9.94922 33.3393 9.97049 33.2963L10.178 32.7976C10.1929 32.752 10.1976 32.7037 10.1916 32.6561C10.1856 32.6086 10.1692 32.5629 10.1434 32.5225C10.1176 32.4821 10.0832 32.4479 10.0426 32.4224C10.002 32.3969 9.95622 32.3807 9.90861 32.3751M8.01236 31.6888L9.90861 31.4057C9.95715 31.3994 10.0038 31.3829 10.0455 31.3573C10.0872 31.3317 10.123 31.2975 10.1506 31.2571C10.1781 31.2166 10.1968 31.1708 10.2054 31.1227C10.214 31.0745 10.2124 31.025 10.2005 30.9776C10.2005 30.9776 10.1886 30.9276 10.1036 30.7219C10.0186 30.5151 9.99111 30.4719 9.99111 30.4719C9.966 30.43 9.93229 30.3939 9.8922 30.366C9.85212 30.338 9.80656 30.3189 9.75855 30.3099C9.71053 30.3009 9.66115 30.3021 9.61365 30.3136C9.56615 30.325 9.52162 30.3464 9.48299 30.3763L7.93986 31.5176C7.77174 31.6426 7.80299 31.7201 8.01236 31.6888M7.65424 31.2307L8.79611 29.6894C8.82612 29.6519 8.84733 29.6081 8.85818 29.5613C8.86903 29.5145 8.86925 29.4659 8.85882 29.419C8.84838 29.3721 8.82756 29.3282 8.79789 29.2904C8.76822 29.2526 8.73045 29.2219 8.68736 29.2007L8.18861 28.9932C8.14302 28.9783 8.0947 28.9738 8.04713 28.9799C7.99956 28.9859 7.95394 29.0025 7.91353 29.0283C7.87312 29.0541 7.83895 29.0886 7.81346 29.1292C7.78797 29.1698 7.7718 29.2156 7.76611 29.2632L7.48361 31.1594C7.45111 31.3682 7.52924 31.4001 7.65424 31.2307ZM30.3455 31.2307C30.4699 31.4001 30.5467 31.3682 30.5155 31.1594L30.233 29.2619C30.2265 29.2135 30.2099 29.167 30.1842 29.1254C30.1586 29.0838 30.1244 29.0481 30.084 29.0206C30.0436 28.9931 29.9979 28.9745 29.9498 28.9659C29.9017 28.9573 29.8523 28.9589 29.8049 28.9707C29.8049 28.9707 29.7555 28.9826 29.5486 29.0669C29.4634 29.0998 29.3801 29.1375 29.2992 29.1801C29.2573 29.2052 29.2212 29.2389 29.1933 29.279C29.1654 29.3191 29.1462 29.3646 29.1372 29.4126C29.1282 29.4606 29.1294 29.51 29.1409 29.5575C29.1523 29.605 29.1737 29.6496 29.2036 29.6882L30.3455 31.2307M28.0911 31.4057L29.9874 31.6882C30.1967 31.7201 30.228 31.6426 30.0592 31.5176L28.5174 30.3763C28.4797 30.3464 28.4359 30.3253 28.3891 30.3145C28.3423 30.3037 28.2936 30.3035 28.2467 30.314C28.1998 30.3244 28.1558 30.3451 28.118 30.3747C28.0802 30.4044 28.0494 30.442 28.028 30.4851L27.8205 30.9838C27.8059 31.0294 27.8015 31.0777 27.8077 31.1252C27.8139 31.1727 27.8306 31.2182 27.8564 31.2585C27.8823 31.2988 27.9167 31.3329 27.9573 31.3583C27.9979 31.3838 28.0436 31.4 28.0911 31.4057M27.8949 33.0588C27.9811 33.2663 28.0086 33.3094 28.0086 33.3094C28.0337 33.3513 28.0674 33.3875 28.1075 33.4154C28.1476 33.4433 28.1932 33.4624 28.2412 33.4715C28.2892 33.4805 28.3386 33.4793 28.3861 33.4678C28.4336 33.4564 28.4781 33.435 28.5167 33.4051L30.0599 32.2632C30.2286 32.1388 30.1961 32.0613 29.988 32.0926L28.0899 32.3751C28.0414 32.3817 27.9949 32.3985 27.9534 32.4242C27.9118 32.45 27.8762 32.4842 27.8486 32.5246C27.8211 32.565 27.8024 32.6107 27.7937 32.6588C27.785 32.7069 27.7864 32.7563 27.798 32.8038C27.798 32.8038 27.8099 32.8532 27.8949 33.0588M30.3455 32.5501L29.2036 34.0919C29.1736 34.1294 29.1524 34.1732 29.1415 34.22C29.1307 34.2668 29.1305 34.3155 29.1409 34.3624C29.1513 34.4093 29.1722 34.4532 29.2018 34.491C29.2315 34.5288 29.2693 34.5594 29.3124 34.5807L29.8111 34.7876C30.0136 34.8469 30.2024 34.7251 30.2336 34.5182L30.5161 32.6213C30.5474 32.4126 30.4705 32.3807 30.3455 32.5501M31.2036 34.5188C31.2349 34.7263 31.4267 34.8582 31.6317 34.8101C31.6317 34.8101 31.6811 34.7982 31.8867 34.7138C32.0942 34.6282 32.1374 34.6007 32.1374 34.6007C32.1793 34.5756 32.2154 34.5419 32.2433 34.5018C32.2712 34.4617 32.2904 34.4161 32.2994 34.3681C32.3084 34.3201 32.3072 34.2707 32.2957 34.2232C32.2843 34.1757 32.2629 34.1312 32.233 34.0926L31.0911 32.5501C30.9667 32.3807 30.8886 32.4132 30.9199 32.6213L31.2036 34.5188M33.3461 32.3751L31.4499 32.0926C31.2405 32.0613 31.2092 32.1388 31.378 32.2632L32.9199 33.4051C32.9574 33.4349 33.0011 33.4561 33.0478 33.4668C33.0946 33.4776 33.1431 33.4778 33.1899 33.4674C33.2367 33.4569 33.2806 33.4362 33.3184 33.4066C33.3561 33.377 33.3867 33.3393 33.408 33.2963L33.6155 32.7976C33.6304 32.752 33.6351 32.7037 33.6291 32.6561C33.6231 32.6086 33.6067 32.5629 33.5809 32.5225C33.5551 32.4821 33.5207 32.4479 33.4801 32.4224C33.4395 32.3969 33.3937 32.3807 33.3461 32.3751M31.4499 31.6888L33.3461 31.4057C33.3946 31.3994 33.4413 31.3829 33.483 31.3573C33.5247 31.3317 33.5605 31.2975 33.5881 31.2571C33.6156 31.2166 33.6343 31.1708 33.6429 31.1227C33.6515 31.0745 33.6499 31.025 33.638 30.9776C33.638 30.9776 33.6261 30.9276 33.5411 30.7219C33.4561 30.5151 33.4286 30.4719 33.4286 30.4719C33.4035 30.43 33.3698 30.3939 33.3297 30.366C33.2896 30.338 33.2441 30.3189 33.196 30.3099C33.148 30.3009 33.0986 30.3021 33.0511 30.3136C33.0036 30.325 32.9591 30.3464 32.9205 30.3763L31.3774 31.5176C31.2092 31.6426 31.2405 31.7201 31.4499 31.6888M31.0917 31.2307L32.2336 29.6894C32.2636 29.6519 32.2848 29.6081 32.2957 29.5613C32.3065 29.5145 32.3067 29.4659 32.2963 29.419C32.2859 29.3721 32.2651 29.3282 32.2354 29.2904C32.2057 29.2526 32.1679 29.2219 32.1249 29.2007L31.6261 28.9932C31.5805 28.9783 31.5322 28.9738 31.4846 28.9799C31.4371 28.9859 31.3914 29.0025 31.351 29.0283C31.3106 29.0541 31.2764 29.0886 31.251 29.1292C31.2255 29.1698 31.2093 29.2156 31.2036 29.2632L30.9211 31.1594C30.8886 31.3682 30.9667 31.4001 31.0917 31.2307ZM32.7392 17.2426C32.7392 17.2426 37.7499 11.9688 37.7499 9.33255C37.7499 7.87693 36.5074 6.69568 34.9736 6.69568C33.8692 6.69568 32.923 7.31318 32.4767 8.20193C32.0305 7.31318 31.0836 6.69568 29.9786 6.69568C28.4461 6.69568 27.2036 7.87693 27.2036 9.33255C27.203 11.9688 32.7392 17.2426 32.7392 17.2426M5.78611 17.2426C5.78611 17.2426 10.7967 11.9688 10.7967 9.33255C10.7967 7.87693 9.55424 6.69568 8.02049 6.69568C6.91611 6.69568 5.96986 7.31318 5.52361 8.20193C5.07736 7.31318 4.13049 6.69568 3.02549 6.69568C1.49299 6.69568 0.250488 7.87693 0.250488 9.33255C0.249863 11.9688 5.78611 17.2426 5.78611 17.2426" fill="#222222"/>
</svg>
