<svg width="33" height="32" viewBox="0 0 33 32" fill="none" xmlns="http://www.w3.org/2000/svg">
<path d="M9 5C8.4 5 8 5.6 8 6V11H6V6C6 5.4 5.6 5 5 5C4.4 5 4 5.6 4 6V11H2V6C2 5.4 1.6 5 1 5C0.4 5 0 5.6 0 6V12.6C0 14.4 1.4 15.8 3 16V30C3 31.2 3.8 32 5 32C6.2 32 7 31.2 7 30V16C8.6 15.8 10 14.4 10 12.6V6C10 5.6 9.6 5 9 5ZM13 6V18H15V30C15 31.2 15.8 32 17 32C18.2 32 19 31.2 19 30V0C15.6 0 13 2.6 13 6ZM27 4C24.2 4 22 7 22 10.6C21.8 13 23 15.2 25 16.6V30C25 31.2 25.8 32 27 32C28.2 32 29 31.2 29 30V16.6C31 15.2 32.2 13 32 10.6C32 7 29.8 4 27 4Z" fill="#222222"/>
</svg>
