<svg width="36" height="30" viewBox="0 0 36 30" fill="none" xmlns="http://www.w3.org/2000/svg">
<path d="M13.005 5C13.005 3.67525 13.5313 2.40475 14.468 1.46801C15.4047 0.531262 16.6752 0.00500488 18 0.00500488C19.3248 0.00500488 20.5953 0.531262 21.532 1.46801C22.4687 2.40475 22.995 3.67525 22.995 5C22.995 6.32476 22.4687 7.59526 21.532 8.532C20.5953 9.46875 19.3248 9.995 18 9.995C16.6752 9.995 15.4047 9.46875 14.468 8.532C13.5313 7.59526 13.005 6.32476 13.005 5ZM18 2.505C17.6724 2.505 17.3479 2.56954 17.0452 2.69492C16.7425 2.82031 16.4675 3.00409 16.2358 3.23577C16.0041 3.46746 15.8203 3.7425 15.6949 4.04521C15.5695 4.34792 15.505 4.67236 15.505 5C15.505 5.32765 15.5695 5.65209 15.6949 5.9548C15.8203 6.25751 16.0041 6.53255 16.2358 6.76424C16.4675 6.99592 16.7425 7.1797 17.0452 7.30508C17.3479 7.43047 17.6724 7.49501 18 7.49501C18.6617 7.49501 19.2963 7.23214 19.7642 6.76424C20.2321 6.29633 20.495 5.66172 20.495 5C20.495 4.33829 20.2321 3.70368 19.7642 3.23577C19.2963 2.76787 18.6617 2.505 18 2.505ZM25.5 6.25C25.5 5.75755 25.597 5.26991 25.7855 4.81494C25.9739 4.35997 26.2501 3.94657 26.5983 3.59835C26.9466 3.25013 27.36 2.97391 27.8149 2.78546C28.2699 2.597 28.7575 2.5 29.25 2.5C29.7425 2.5 30.2301 2.597 30.6851 2.78546C31.14 2.97391 31.5534 3.25013 31.9017 3.59835C32.2499 3.94657 32.5261 4.35997 32.7146 4.81494C32.903 5.26991 33 5.75755 33 6.25C33 7.24457 32.6049 8.19839 31.9017 8.90166C31.1984 9.60492 30.2446 10 29.25 10C28.2554 10 27.3016 9.60492 26.5983 8.90166C25.8951 8.19839 25.5 7.24457 25.5 6.25ZM29.25 5C28.9185 5 28.6005 5.1317 28.3661 5.36612C28.1317 5.60054 28 5.91848 28 6.25C28 6.58153 28.1317 6.89947 28.3661 7.13389C28.6005 7.36831 28.9185 7.5 29.25 7.5C29.5815 7.5 29.8995 7.36831 30.1339 7.13389C30.3683 6.89947 30.5 6.58153 30.5 6.25C30.5 5.91848 30.3683 5.60054 30.1339 5.36612C29.8995 5.1317 29.5815 5 29.25 5ZM6.75 2.5C5.75544 2.5 4.80161 2.89509 4.09835 3.59835C3.39509 4.30162 3 5.25544 3 6.25C3 7.24457 3.39509 8.19839 4.09835 8.90166C4.80161 9.60492 5.75544 10 6.75 10C7.74456 10 8.69839 9.60492 9.40165 8.90166C10.1049 8.19839 10.5 7.24457 10.5 6.25C10.5 5.25544 10.1049 4.30162 9.40165 3.59835C8.69839 2.89509 7.74456 2.5 6.75 2.5ZM5.5 6.25C5.5 5.91848 5.6317 5.60054 5.86612 5.36612C6.10054 5.1317 6.41848 5 6.75 5C7.08152 5 7.39946 5.1317 7.63388 5.36612C7.8683 5.60054 8 5.91848 8 6.25C8 6.58153 7.8683 6.89947 7.63388 7.13389C7.39946 7.36831 7.08152 7.5 6.75 7.5C6.41848 7.5 6.10054 7.36831 5.86612 7.13389C5.6317 6.89947 5.5 6.58153 5.5 6.25ZM8.67 12.5C8.23001 13.2596 7.99886 14.1222 8 15H3V21.25C2.9998 21.8718 3.15424 22.484 3.44942 23.0313C3.7446 23.5786 4.17125 24.0439 4.69097 24.3854C5.21069 24.7268 5.80716 24.9337 6.42669 24.9873C7.04622 25.0409 7.66935 24.9396 8.24 24.6925C8.425 25.52 8.715 26.31 9.09 27.0475C8.14116 27.4306 7.11277 27.5749 6.09514 27.4677C5.07751 27.3605 4.10177 27.005 3.25361 26.4326C2.40544 25.8602 1.7108 25.0882 1.23068 24.1846C0.750565 23.281 0.49966 22.2733 0.5 21.25V15C0.5 14.337 0.763392 13.7011 1.23223 13.2322C1.70107 12.7634 2.33696 12.5 3 12.5H8.67ZM26.91 27.0475C27.8588 27.4306 28.8872 27.5749 29.9049 27.4677C30.9225 27.3605 31.8982 27.005 32.7464 26.4326C33.5946 25.8602 34.2892 25.0882 34.7693 24.1846C35.2494 23.281 35.5003 22.2733 35.5 21.25V15C35.5 14.337 35.2366 13.7011 34.7678 13.2322C34.2989 12.7634 33.663 12.5 33 12.5H27.33C27.755 13.235 28 14.0875 28 15H33V21.25C33.0002 21.8718 32.8458 22.484 32.5506 23.0313C32.2554 23.5786 31.8288 24.0439 31.309 24.3854C30.7893 24.7268 30.1928 24.9337 29.5733 24.9873C28.9538 25.0409 28.3307 24.9396 27.76 24.6925C27.5725 25.52 27.285 26.31 26.91 27.0475ZM13 12.4975C12.337 12.4975 11.7011 12.7609 11.2322 13.2297C10.7634 13.6986 10.5 14.3345 10.5 14.9975V22.5C10.5 24.4891 11.2902 26.3968 12.6967 27.8033C14.1032 29.2098 16.0109 30 18 30C19.9891 30 21.8968 29.2098 23.3033 27.8033C24.7098 26.3968 25.5 24.4891 25.5 22.5V15C25.5 14.337 25.2366 13.7011 24.7678 13.2322C24.2989 12.7634 23.663 12.5 23 12.5H13V12.4975ZM13 14.9975H23V22.5C23 23.8261 22.4732 25.0979 21.5355 26.0355C20.5979 26.9732 19.3261 27.5 18 27.5C16.6739 27.5 15.4021 26.9732 14.4645 26.0355C13.5268 25.0979 13 23.8261 13 22.5V15V14.9975Z" fill="#222222"/>
</svg>
