<svg width="38" height="32" viewBox="0 0 38 32" fill="none" xmlns="http://www.w3.org/2000/svg">
<path d="M13.0938 23.6953H8.33594V18.9375C8.33594 18.757 8.18828 18.6094 8.00781 18.6094H6.03906C5.85859 18.6094 5.71094 18.757 5.71094 18.9375V23.6953H0.953125C0.772656 23.6953 0.625 23.843 0.625 24.0234V25.9922C0.625 26.1727 0.772656 26.3203 0.953125 26.3203H5.71094V31.0781C5.71094 31.2586 5.85859 31.4062 6.03906 31.4062H8.00781C8.18828 31.4062 8.33594 31.2586 8.33594 31.0781V26.3203H13.0938C13.2742 26.3203 13.4219 26.1727 13.4219 25.9922V24.0234C13.4219 23.843 13.2742 23.6953 13.0938 23.6953Z" fill="#222222"/>
<path d="M35.4062 6.39902L30.1562 9.42188V3.1875C30.1562 1.73965 28.9791 0.5625 27.5312 0.5625H3.25C1.80215 0.5625 0.625 1.73965 0.625 3.1875V17.625H3.57812V3.51562H27.2031V26.4844H16.375V29.4375H27.5312C28.9791 29.4375 30.1562 28.2604 30.1562 26.8125V20.5781L35.4062 23.601C36.2799 24.1055 37.375 23.4738 37.375 22.4689V7.53516C37.375 6.52617 36.2799 5.89453 35.4062 6.39902ZM34.4219 19.6348L30.1562 17.182V12.8221L34.4219 10.3652V19.6348Z" fill="#222222"/>
<path d="M11.125 8.76562C11.3055 8.76562 11.4531 8.61797 11.4531 8.4375V6.46875C11.4531 6.28828 11.3055 6.14062 11.125 6.14062H6.53125C6.35078 6.14062 6.20312 6.28828 6.20312 6.46875V8.4375C6.20312 8.61797 6.35078 8.76562 6.53125 8.76562H11.125Z" fill="#222222"/>
</svg>
