<svg width="38" height="38" viewBox="0 0 38 38" fill="none" xmlns="http://www.w3.org/2000/svg">
<path d="M34.2288 0.403049C34.0765 0.403049 33.9313 0.474924 33.7789 0.627299L32.7008 1.70542L32.2523 1.25549L31.6226 1.83911L32.1171 2.33361L31.4875 2.91867L31.039 2.46874L30.4094 3.09836L30.8593 3.54686L29.8258 4.62499C29.5167 4.93405 29.5167 5.21436 29.8258 5.52342L23.807 11.5437C22.4643 10.4699 21.0326 9.65624 19.6741 9.2523C17.147 8.5048 14.9016 9.04386 13.1594 10.7789C12.3903 11.548 11.9188 12.4867 11.7219 13.6094C11.4085 15.4292 9.80283 16.8495 7.90389 16.9789C5.83245 17.1183 4.01258 17.9506 2.64839 19.3148C-0.951111 22.9143 -0.298486 29.4449 4.13045 33.8695C6.64608 36.3851 9.8517 37.6875 12.8015 37.6875C15.0468 37.6875 17.1298 36.9069 18.6851 35.3516C20.0508 33.9859 20.8816 32.1675 21.0211 30.0961C21.1505 28.1986 22.5261 26.5914 24.346 26.2766C25.4687 26.0811 26.452 25.6096 27.221 24.8391C28.9561 23.1041 29.4951 20.8529 28.7476 18.3272C28.5004 17.4834 28.0576 16.6252 27.5358 15.7656L25.4227 17.8773C25.6484 18.3085 25.8396 18.7254 25.9632 19.1351C26.406 20.6287 26.1702 21.8462 25.1985 22.818C24.8506 23.1616 24.4366 23.3513 23.8961 23.4476C20.7853 23.9867 18.3603 26.715 18.1461 29.9164C18.057 31.2806 17.528 32.4607 16.664 33.3304C14.1815 35.8058 9.50526 35.1561 6.19758 31.8469C2.88989 28.5407 2.19414 23.8113 4.66951 21.3359C5.54064 20.4706 6.71939 19.943 8.08358 19.8539C11.2849 19.6397 14.0075 17.2146 14.5523 14.1039C14.6486 13.5648 14.8341 13.1494 15.182 12.8015C15.8504 12.133 16.6137 11.8125 17.5179 11.8125C17.9276 11.8125 18.3991 11.8973 18.8648 12.0367C19.7705 12.307 20.7796 12.8403 21.7398 13.5648L16.9343 18.3718C16.4073 18.2506 15.8599 18.2497 15.3325 18.3693C14.8052 18.4888 14.3117 18.7257 13.8885 19.0624C13.4654 19.399 13.1237 19.8267 12.8887 20.3137C12.6537 20.8006 12.5315 21.3343 12.5312 21.875C12.5312 23.8559 14.1426 25.4673 16.125 25.4673C18.1073 25.4673 19.7187 23.8559 19.7187 21.8736C19.7187 21.6551 19.6684 21.4524 19.6281 21.2439L32.7008 8.12674C33.0098 8.4358 33.3361 8.4358 33.6452 8.12674L34.7233 7.04861L35.1718 7.49855L35.7555 6.91492L35.3069 6.46499L35.9351 5.8368L36.25 6.46499L36.8336 5.8368L36.3851 5.38686L37.4632 4.30874C37.7723 3.99967 37.7723 3.6748 37.4632 3.36574L34.7219 0.625861C34.5922 0.49091 34.4158 0.410679 34.2288 0.401611V0.403049ZM34.0937 2.15249L34.7233 2.78211L31.9375 5.52342L31.3538 4.9398L34.0937 2.15249ZM35.3069 3.23061L35.9351 3.86024L33.1507 6.60011L32.5656 5.97049L35.3069 3.23061ZM9.07258 24.3015L7.05145 26.3226L11.6773 30.9485L13.6985 28.9274L9.07258 24.3015Z" fill="#222222"/>
</svg>
