<svg width="36" height="32" viewBox="0 0 36 32" fill="none" xmlns="http://www.w3.org/2000/svg">
<path d="M33.5555 4.88891H25.4444L24.2666 1.86669C24.1055 1.44905 23.8219 1.08982 23.4532 0.836046C23.0844 0.582272 22.6476 0.445785 22.1999 0.444463H13.7999C13.3504 0.443543 12.9112 0.578984 12.5402 0.832905C12.1692 1.08683 11.884 1.44728 11.7222 1.86669L10.5555 4.88891H2.44439C1.85502 4.88891 1.28979 5.12303 0.873042 5.53978C0.456294 5.95653 0.222168 6.52176 0.222168 7.11113V29.3334C0.222168 29.9227 0.456294 30.488 0.873042 30.9047C1.28979 31.3214 1.85502 31.5556 2.44439 31.5556H33.5555C34.1449 31.5556 34.7101 31.3214 35.1268 30.9047C35.5436 30.488 35.7777 29.9227 35.7777 29.3334V7.11113C35.7777 6.52176 35.5436 5.95653 35.1268 5.53978C34.7101 5.12303 34.1449 4.88891 33.5555 4.88891V4.88891ZM33.5555 29.3334H2.44439V7.11113H12.0777L13.7999 2.66669H22.1999L23.9222 7.11113H33.5555V29.3334Z" fill="#222222"/>
<path d="M8 17.1111C8 19.0889 8.58649 21.0223 9.6853 22.6668C10.7841 24.3113 12.3459 25.593 14.1732 26.3499C16.0004 27.1068 18.0111 27.3048 19.9509 26.9189C21.8907 26.5331 23.6725 25.5807 25.0711 24.1822C26.4696 22.7836 27.422 21.0018 27.8079 19.062C28.1937 17.1222 27.9957 15.1115 27.2388 13.2842C26.4819 11.457 25.2002 9.8952 23.5557 8.79639C21.9112 7.69757 19.9778 7.11108 18 7.11108C15.3478 7.11108 12.8043 8.16465 10.9289 10.04C9.05357 11.9154 8 14.4589 8 17.1111V17.1111ZM26.2222 17.1111C26.2222 18.7373 25.74 20.327 24.8365 21.6791C23.9331 23.0312 22.6489 24.0851 21.1465 24.7074C19.6441 25.3297 17.9909 25.4926 16.3959 25.1753C14.801 24.8581 13.3359 24.075 12.186 22.9251C11.0361 21.7752 10.253 20.3101 9.93577 18.7152C9.61851 17.1202 9.78134 15.467 10.4037 13.9646C11.026 12.4622 12.0798 11.178 13.432 10.2746C14.7841 9.37109 16.3738 8.88886 18 8.88886C20.1798 8.8918 22.2694 9.75901 23.8107 11.3003C25.3521 12.8417 26.2193 14.9313 26.2222 17.1111V17.1111Z" fill="#222222"/>
<path d="M8.41124 10.2556C8.41124 10.0198 8.31759 9.79375 8.15089 9.62705C7.98419 9.46035 7.7581 9.3667 7.52235 9.3667H4.85569C4.61994 9.3667 4.39385 9.46035 4.22715 9.62705C4.06045 9.79375 3.9668 10.0198 3.9668 10.2556C3.9668 10.4913 4.06045 10.7174 4.22715 10.8841C4.39385 11.0508 4.61994 11.1445 4.85569 11.1445H7.52235C7.7581 11.1445 7.98419 11.0508 8.15089 10.8841C8.31759 10.7174 8.41124 10.4913 8.41124 10.2556V10.2556Z" fill="#222222"/>
<path d="M11.7111 17.1111C11.7236 18.283 12.0686 19.4272 12.7059 20.4107C13.3432 21.3942 14.2466 22.1765 15.3111 22.6667L16.2555 21.1444C15.6193 20.9314 15.0396 20.577 14.5598 20.1079C14.0801 19.6389 13.7127 19.0673 13.4854 18.436C13.258 17.8047 13.1766 17.1302 13.2471 16.4629C13.3176 15.7957 13.5383 15.153 13.8926 14.5832C14.2469 14.0134 14.7256 13.5313 15.2928 13.1728C15.86 12.8144 16.501 12.5891 17.1678 12.5137C17.8345 12.4384 18.5096 12.515 19.1425 12.7377C19.7754 12.9605 20.3497 13.3237 20.8222 13.8L21.7778 12.2667C20.8681 11.5297 19.7678 11.0663 18.605 10.9306C17.4422 10.7948 16.2647 10.9923 15.2098 11.5C14.1549 12.0076 13.2659 12.8046 12.6465 13.798C12.0271 14.7915 11.7027 15.9404 11.7111 17.1111V17.1111Z" fill="#222222"/>
</svg>
